<mxfile host="app.diagrams.net" modified="2024-02-28T00:10:05.574Z" agent="Mozilla/5.0 (Windows NT 10.0; Win64; x64) AppleWebKit/537.36 (KHTML, like Gecko) Chrome/122.0.0.0 Safari/537.36" version="23.1.7" etag="sgATAo2EUGP7Q0WOO_Vk" type="github">
  <diagram name="PÃ¡gina-1" id="pvN795g5KjbPI5CNdgmd">
    <mxGraphModel>
      <root>
        <mxCell id="0" />
        <mxCell id="1" parent="0" />
      </root>
    </mxGraphModel>
  </diagram>
</mxfile>
